HIERARCHY
ROOT lpalm
{
OFFSET	0.000000	0.000000	0.000000
CHANNELS	6	Xposition	Yposition	Zposition	Zrotation	Xrotation	Yrotation
JOINT lthumbA
{
OFFSET	-6.570000	-2.200000	3.500000
CHANNELS	3	Zrotation	Xrotation	Yrotation
JOINT lthumbB
{
OFFSET	0.000000	0.000000	7.000000
CHANNELS	3	Zrotation	Xrotation	Yrotation
JOINT lthumbC
{
OFFSET	0.000000	0.000000	3.800000
CHANNELS	3	Zrotation	Xrotation	Yrotation
End Site
{
OFFSET	0.000000	0.000000	3.000000
}
}
}
}
JOINT lindexA
{
OFFSET	-2.730000	0.000000	10.400000
CHANNELS	3	Zrotation	Xrotation	Yrotation
JOINT lindexB
{
OFFSET	0.000000	0.000000	4.600000
CHANNELS	3	Zrotation	Xrotation	Yrotation
JOINT lindexC
{
OFFSET	0.000000	0.000000	3.000000
CHANNELS	3	Zrotation	Xrotation	Yrotation
End Site
{
OFFSET	0.000000	0.000000	2.600000
}
}
}
}
JOINT lmiddleA
{
OFFSET	-0.610000	0.000000	10.000000
CHANNELS	3	Zrotation	Xrotation	Yrotation
JOINT lmiddleB
{
OFFSET	0.000000	0.000000	5.100000
CHANNELS	3	Zrotation	Xrotation	Yrotation
JOINT lmiddleC
{
OFFSET	0.000000	0.000000	3.100000
CHANNELS	3	Zrotation	Xrotation	Yrotation
End Site
{
OFFSET	0.000000	0.000000	2.800000
}
}
}
}
JOINT lringA
{
OFFSET	1.880000	0.000000	9.700000
CHANNELS	3	Zrotation	Xrotation	Yrotation
JOINT lringB
{
OFFSET	0.000000	0.000000	4.800000
CHANNELS	3	Zrotation	Xrotation	Yrotation
JOINT lringC
{
OFFSET	0.000000	0.000000	3.000000
CHANNELS	3	Zrotation	Xrotation	Yrotation
End Site
{
OFFSET	0.000000	0.000000	2.700000
}
}
}
}
JOINT llittleA
{
OFFSET	3.540000	0.000000	8.600000
CHANNELS	3	Zrotation	Xrotation	Yrotation
JOINT llittleB
{
OFFSET	0.000000	0.000000	3.800000
CHANNELS	3	Zrotation	Xrotation	Yrotation
JOINT llittleC
{
OFFSET	0.000000	0.000000	2.300000
CHANNELS	3	Zrotation	Xrotation	Yrotation
End Site
{
OFFSET	0.000000	0.000000	2.400000
}
}
}
}
}
MOTION
Frames: 47
Frame Time: 0.023541
0 0 0 0.59 7.62 -4.43 5.28 1.04 -49.49 -14.01 -5.42 20.74 0 0 2.64 0 6.09 -10.21 0 0.62 0 0 0 0 0 -4.37 -0.27 0 1.67 0 0 0 0 0 -6.88 1.8 0 1.04 0 0 0.51 0 0 -1.59 7.33 0 2.13 0 0 3.16 0
0 0 0 0.69 16.77 -2.3 9.98 6.77 -21.12 -14.66 -3.19 12.01 0 0 14.94 0 2.78 -11.78 0 14.35 0 0 2.89 0 0 12.03 0.49 0 14.7 0 0 3.78 0 0 10.08 4.47 0 20.99 0 0 2.73 0 0 17.53 7.77 0 22.89 0 0 0 0
0 0 0 0.42 41.67 -0.47 1.15 0.58 -10.96 -15 0 0 0 0 18.4 0 5.05 -10.88 0 12.54 0 0 0 0 0 26.13 2.78 0 29.58 0 0 5.15 0 0 26.03 6.03 0 34.93 0 0 3.77 0 0 16.89 5.9 0 34.24 0 0 1.66 0
0 0 0 -0.18 -4.17 -2.51 10.61 4.91 -38.01 -14.86 -2.06 7.7 0 0 11.21 0 52.06 -6.67 0 30.05 0 0 3.32 0 0 78.95 -0.86 0 68.3 0 0 17.44 0 0 71.35 -1.46 0 54.43 0 0 6.74 0 0 43.58 -2.97 0 28.69 0 0 0 0
0 0 0 1.08 26.07 -2.21 12.3 9.2 -16.84 -14.96 -1.09 4.08 0 0 15.88 0 21.87 -10.11 0 20.31 0 0 1.19 0 0 34.68 1.37 0 28.78 0 0 5.35 0 0 35.7 2.47 0 32.99 0 0 3.37 0 0 29.07 3.73 0 34.67 0 0 1.64 0
0 0 0 -3.57 51.3 2.87 -1.85 -4.99 -0.39 -15 0 0 0 0 21.7 0 -7.34 -15.43 0 14.21 0 0 0 0 0 11.54 3 0 30.41 0 0 6.57 0 0 13.69 7.71 0 33.65 0 0 3.28 0 0 3.04 6.31 0 29.89 0 0 0 0
0 0 0 -0.18 5.85 1.73 -20.24 -10.07 -33.98 -14.11 -5.15 19.64 0 0 12.73 0 3.19 -2.05 0 13.79 0 0 1.13 0 0 10.88 2.88 0 18.86 0 0 3.6 0 0 15.21 2.73 0 26.59 0 0 1.46 0 0 22.8 0.29 0 23.02 0 0 0 0
0 0 0 0.75 -18.84 2.2 -29.68 -6.99 -42.82 -15 0 0 0 0 10.17 0 7.3 1.58 0 8.96 0 0 0.49 0 0 15.98 2.24 0 6.22 0 0 1.19 0 0 15.4 1.11 0 8.76 0 0 0 0 0 31.61 -3.63 0 13.56 0 0 0 0
0 0 0 0.33 -1.93 9.82 -23.34 -10.44 -30.64 -14.18 -4.94 18.82 0 0 13.24 0 -7.81 0.61 0 12.3 0 0 4.73 0 0 -1.18 5.42 0 10.79 0 0 4.39 0 0 3.51 2.15 0 14.33 0 0 3.17 0 0 15.3 -4.34 0 12.96 0 0 0 0
0 0 0 2.64 25.92 -5.44 49.9 29.85 -35.3 -14.34 -4.43 16.82 0 0 21.19 0 7.3 -13.59 0 71.99 0 0 18.44 0 0 25.22 3.24 0 71.73 0 0 20.3 0 0 36.55 7.85 0 68.92 0 0 12.87 0 0 35.58 5.46 0 56.56 0 0 12.86 0
0 0 0 -8.18 57.19 5.31 -4.18 -10.54 -2.51 -15 0 0 0 0 21.4 0 -17.79 -17.27 0 6.55 0 0 0 0 0 -6.85 0.05 0 17.6 0 0 2.28 0 0 -1.73 7.66 0 22.49 0 0 0.21 0 0 -6.61 5.52 0 22.49 0 0 0 0
0 0 0 0.43 28.1 -0.81 10.14 6.91 -17.08 -14.97 -0.97 3.62 0 0 16.52 0 28.36 -9 0 26.23 0 0 1.32 0 0 28.3 0.51 0 31.13 0 0 2 0 0 28.23 3 0 31.11 0 0 2.09 0 0 20.89 3.75 0 28.28 0 0 0 0
0 0 0 2.18 25.61 -4.55 -19.35 -12.46 -23.79 -15 -0.28 1.03 0 0 14.8 0 -31.42 4.01 0 0 0 0 4.64 0 0 26.73 4.77 0 65.37 0 0 16.27 0 0 48.87 1.53 0 64.49 0 0 10.55 0 0 42.67 -0.5 0 58.77 0 0 18.14 0
0 0 0 0.48 30.42 -0.82 11.83 10.1 -9.94 -15 -0.22 0.81 0 0 17.47 0 12.49 -13.93 0 19.45 0 0 0.86 0 0 19.48 1.48 0 22.84 0 0 2.56 0 0 19.72 5.47 0 27.97 0 0 1.64 0 0 16.02 6.2 0 25.72 0 0 0 0
0 0 0 -12.45 58.66 7.72 -19.83 -22.45 9.86 -15 0 0 0 0 22.66 0 -27.01 -15.64 0 2.64 0 0 0 0 0 3.67 2.1 0 35.62 0 0 7.57 0 0 11.07 5.6 0 35.43 0 0 3.35 0 0 -2.55 3.9 0 28.19 0 0 0 0
0 0 0 -0.32 -4.56 -4.02 -6.17 -2.41 -40.47 -14.97 -0.9 3.36 0 0 10.38 0 37.58 -9.39 0 23.28 0 0 4.4 0 0 71.33 -1.26 0 65.93 0 0 15.06 0 0 68.13 -1.62 0 56.19 0 0 8.1 0 0 43.05 -2.85 0 30.23 0 0 0 0
0 0 0 0.65 25.69 -1.35 2.43 0.69 -26.03 -15 -0.08 0.3 0 0 17.12 0 38.05 -4.44 0 22.39 0 0 2.03 0 0 42.51 -0.02 0 29.27 0 0 6.27 0 0 41.02 1.05 0 36.13 0 0 3.79 0 0 40.59 0.66 0 45.95 0 0 4.67 0
0 0 0 -0.23 2.5 5.24 -13.09 -8.7 -18.34 -14.19 -4.92 18.74 0 0 11.26 0 -27.45 1.59 0 6.63 0 0 3.83 0 0 -9.7 8.29 0 10.65 0 0 5.02 0 0 13.2 1.77 0 22.72 0 0 2.4 0 0 27.42 -1.46 0 23.66 0 0 0 0
0 0 0 -2.52 41.5 2.85 10.26 6.67 -5.04 -14.99 -0.56 2.1 0 0 18.66 0 -4.28 -13.49 0 8.84 0 0 0 0 0 9.39 2.75 0 23.03 0 0 3.83 0 0 12.87 7.09 0 28.07 0 0 1.68 0 0 8.17 5.91 0 26.55 0 0 0 0
0 0 0 3.16 26.73 -6.3 -18.2 -10.73 -27.83 -14.86 -2.06 7.73 0 0 16.01 0 6.72 -10.27 0 21.82 0 0 0.7 0 0 35.84 3.16 0 32.19 0 0 5.89 0 0 35.62 3.97 0 35.24 0 0 3.13 0 0 21.36 4.76 0 28.07 0 0 0 0
0 0 0 1.98 25.08 -4.24 -18.24 -10.77 -28.65 -14.87 -2.03 7.58 0 0 15.68 0 -13.58 -4.33 0 5.21 0 0 1.57 0 0 27.12 2.47 0 34.34 0 0 6.47 0 0 31.6 3.6 0 35.33 0 0 3.18 0 0 21.48 3.05 0 27.81 0 0 0 0
0 0 0 2.44 38.79 -3.04 56.01 19.36 -37.66 -15 0 0 0 0 24.62 0 -8.15 -21.2 0 54.27 0 0 10.83 0 0 9.15 5.56 0 61.36 0 0 17.57 0 0 19.58 11.09 0 56.61 0 0 7.24 0 0 19.84 6.95 0 42.44 0 0 3.15 0
0 0 0 0.68 12.48 -3.06 -6.36 -4 -25.36 -14.95 -1.27 4.74 0 0 10.63 0 -2.81 -10.44 0 17.56 0 0 2.07 0 0 12.02 0.56 0 15.86 0 0 1.62 0 0 9.14 4.85 0 18.41 0 0 0.21 0 0 21.1 5.64 0 20.02 0 0 0 0
0 0 0 0.87 13.18 -3.7 12.72 10.94 -13.91 -14.51 -3.84 14.52 0 0 14.18 0 -6.34 -11.83 0 14.69 0 0 4.29 0 0 24.28 2.64 0 39.43 0 0 5.56 0 0 30.74 5.78 0 43.11 0 0 2.92 0 0 33.76 6.07 0 39.83 0 0 3.96 0
0 0 0 -1.77 19.51 5 29.02 20.65 -11.57 -14.14 -5.07 19.33 0 0 15.81 0 -44.01 -4.55 0 7.08 0 0 7.13 0 0 -17.62 12.86 0 10.82 0 0 4.85 0 0 29.5 7 0 43.35 0 0 4.7 0 0 42.28 -0.22 0 55.88 0 0 11.03 0
0 0 0 0.58 31.13 -0.96 20.62 13.5 -19.31 -15 0 0 0 0 17.03 0 22.84 -8.8 0 17.72 0 0 0 0 0 33.99 0.86 0 28.76 0 0 4.52 0 0 35.53 2.6 0 35.87 0 0 3.28 0 0 26.62 3.14 0 36.47 0 0 0.84 0
0 0 0 -0.25 44.45 0.26 1.73 0.74 -8.9 -15 0 0 0 0 18.9 0 2.16 -11.77 0 12.3 0 0 0 0 0 22.16 2.9 0 29.17 0 0 5 0 0 22.26 6.89 0 34.3 0 0 3.67 0 0 12.87 6.5 0 32.86 0 0 1.14 0
0 0 0 -2.54 51.99 1.98 4.77 1.59 -6.7 -15 0 0 0 0 24.1 0 16.82 -3.77 0 59.03 0 0 13.68 0 0 28.84 1.19 0 53.11 0 0 13.01 0 0 32.55 1.18 0 54.83 0 0 7.11 0 0 15.48 2.2 0 44.27 0 0 4.63 0
0 0 0 -0.56 11.6 2.75 -21.18 -16.34 -13.7 -13.97 -5.52 21.16 0 0 13.89 0 -26.82 -1.96 0 3.33 0 0 3.56 0 0 -7.2 5.56 0 11.25 0 0 5.02 0 0 29.13 4.7 0 42.39 0 0 1.15 0 0 30.86 1.32 0 29.83 0 0 1.62 0
0 0 0 0.29 5.49 -3 4.42 3 -22.99 -14.83 -2.27 8.49 0 0 10.88 0 9.63 -10.73 0 16.47 0 0 3.21 0 0 17.85 0 0 16.33 0 0 3.3 0 0 14.76 1.5 0 20.29 0 0 2.23 0 0 22.01 7 0 21.02 0 0 0 0
0 0 0 0.32 5.51 -3.35 60.9 30.43 -43.77 -12.34 -8.59 34.32 0 0 25 0 -31.82 -22.71 0 4.79 0 0 10.02 0 0 -15.28 4.91 0 14.45 0 0 7.16 0 0 50.7 1.97 0 69.93 0 0 0 0 0 69.05 1.12 0 73.53 0 0 10.56 0
0 0 0 -0.03 1.64 0.88 14.9 13.34 -5.4 -13.65 -6.28 24.25 0 0 15.62 0 -7.6 0.3 0 9.5 0 0 7.63 0 0 41.94 2.34 0 47.38 0 0 9.82 0 0 51.25 0.37 0 48.55 0 0 6.44 0 0 48.97 1.59 0 38.91 0 0 6.63 0
0 0 0 -0.15 14.82 0.58 39.54 27.48 -20.74 -14.01 -5.4 20.68 0 0 20.83 0 31.86 -4.6 0 47.49 0 0 9.75 0 0 41.27 3.46 0 38.14 0 0 7.49 0 0 41.71 2.01 0 34.11 0 0 3.23 0 0 31.43 2.01 0 25.72 0 0 0 0
0 0 0 -0.67 13.82 2.73 -17.74 -7.69 -40.76 -15 0 0 0 0 8.47 0 -41.39 1.26 0 6.08 0 0 2.67 0 0 -19.19 9.44 0 11.25 0 0 3.15 0 0 7.02 6.47 0 26.05 0 0 2.73 0 0 19.77 1.46 0 24.77 0 0 0.22 0
0 0 0 -0.06 39.38 0.08 1.67 0.88 -9.93 -15 -0.24 0.89 0 0 17.84 0 2.04 -12.02 0 11.05 0 0 0 0 0 16.55 2.71 0 25.33 0 0 3.68 0 0 17.67 6.52 0 29.31 0 0 1.39 0 0 11.15 6.15 0 27.93 0 0 0 0
0 0 0 0.52 5.88 -5 -18.31 -12.65 -23.07 -14.55 -3.69 13.93 0 0 14.93 0 9.67 -3.9 0 10.18 0 0 1.89 0 0 46.93 1.93 0 42.45 0 0 7.27 0 0 52.91 0.07 0 41.87 0 0 3.92 0 0 37.18 0.8 0 30.06 0 0 0 0
0 0 0 0.65 12.26 -3 -2.43 -1.55 -21.54 -14.8 -2.44 9.15 0 0 11.48 0 -1.94 -10.48 0 17.86 0 0 1.81 0 0 12.23 0.89 0 16.19 0 0 1.7 0 0 9.47 4.88 0 18.74 0 0 0.21 0 0 21.3 5.57 0 20.02 0 0 0 0
0 0 0 1.08 21.14 -2.79 -7.49 -4.19 -35.24 -15 -0.23 0.86 0 0 17.1 0 48.23 -1.21 0 35.19 0 0 5.29 0 0 69.7 0 0 35.62 0 0 6.11 0 0 63.41 0 0 38.33 0 0 4.02 0 0 56.18 0 0 40.6 0 0 10.73 0
0 0 0 0.01 -0.25 2.12 -22.05 -4.92 -51.55 -15 0 0 0 0 8.25 0 -41.56 1.38 0 3.44 0 0 3.17 0 0 -29.58 9.15 0 3.86 0 0 2.99 0 0 -21.8 14.18 0 9.53 0 0 4.29 0 0 9.29 5.85 0 12.76 0 0 0.15 0
0 0 0 3.98 -24.96 8.59 -28.33 -11.6 -26.8 -14.99 -0.49 1.84 0 0 19.85 0 -6.61 0.19 0 9.66 0 0 3.48 0 0 5.94 2.76 0 7.32 0 0 4.72 0 0 3.49 4.53 0 8.63 0 0 4.39 0 0 29.31 -1.89 0 11.48 0 0 1.7 0
0 0 0 -0.81 30.4 1.38 23.47 23.06 -2.47 -14.66 -3.22 12.13 0 0 19.75 0 17.64 -12.49 0 18.9 0 0 1.01 0 0 29.38 3.4 0 30.6 0 0 6.44 0 0 31.17 4.78 0 32.61 0 0 3.54 0 0 20.4 5.07 0 27.24 0 0 0 0
0 0 0 -0.59 35.55 0.83 9.37 7.58 -6.58 -14.99 -0.41 1.54 0 0 18.63 0 5.72 -12.34 0 15.7 0 0 0 0 0 19.84 3.52 0 29.92 0 0 5.02 0 0 22.57 6.35 0 32.38 0 0 1.93 0 0 14.11 6.01 0 28.3 0 0 0 0
0 0 0 -0.84 34.43 1.22 10.2 8.29 -5.36 -14.98 -0.82 3.07 0 0 20.02 0 21.64 -6.75 0 24.63 0 0 1.35 0 0 31.69 1.64 0 33.71 0 0 5.28 0 0 35 2.92 0 37.16 0 0 2.73 0 0 17.98 3.75 0 29.49 0 0 0 0
0 0 0 -6.75 23.11 16.1 7.47 1.5 -0.75 -14.36 -4.37 16.55 0 0 15.3 0 -13.35 -7.94 0 8.13 0 0 0.35 0 0 -7.59 2.88 0 3.89 0 0 2.56 0 0 -3.43 5.95 0 10.1 0 0 2.32 0 0 4.46 3.64 0 17.94 0 0 0 0
0 0 0 -0.26 34.96 0.37 8.89 6.75 -10.11 -15 0 0 0 0 18.52 0 19.06 -8.61 0 18.48 0 0 0 0 0 29.35 1.31 0 30.72 0 0 4.54 0 0 31.72 3.54 0 36.65 0 0 2.87 0 0 21.86 4.02 0 35.31 0 0 0.02 0
0 0 0 -0.57 -10.79 -3 -30.93 4.85 -64.59 -15 0 0 0 0 12.53 0 -51.81 -1.98 0 6.72 0 0 5.58 0 0 -28.82 2.13 0 12.26 0 0 6.01 0 0 -0.07 4.43 0 27.74 0 0 2.75 0 0 27.5 -4.31 0 24.37 0 0 1.21 0
0 0 0 0.43 32.48 -0.67 -4.33 -3.55 -22.84 -14.99 -0.6 2.25 0 0 16.07 0 -30.18 -10.35 0 4.74 0 0 2.09 0 0 4.34 1.68 0 28.85 0 0 4.74 0 0 16.17 5.57 0 32.31 0 0 1.99 0 0 16.99 2.96 0 31.34 0 0 0 0
